<?xml version="1.0" encoding="UTF-8" standalone="no"?>
<svg
   version="1.2"
   viewBox="0 0 800 400"
   width="600"
   height="300"
   id="svg1402"
   sodipodi:docname="clouds.svg"
   inkscape:version="1.1.2 (0a00cf5339, 2022-02-04)"
   xmlns:inkscape="http://www.inkscape.org/namespaces/inkscape"
   xmlns:sodipodi="http://sodipodi.sourceforge.net/DTD/sodipodi-0.dtd"
   xmlns="http://www.w3.org/2000/svg"
   xmlns:svg="http://www.w3.org/2000/svg"
   xmlns:rdf="http://www.w3.org/1999/02/22-rdf-syntax-ns#"
   xmlns:cc="http://creativecommons.org/ns#"
   xmlns:dc="http://purl.org/dc/elements/1.1/">
  <sodipodi:namedview
     id="namedview1404"
     pagecolor="#ffffff"
     bordercolor="#666666"
     borderopacity="1.0"
     inkscape:pageshadow="2"
     inkscape:pageopacity="0.0"
     inkscape:pagecheckerboard="0"
     showgrid="false"
     inkscape:zoom="1"
     inkscape:cx="575.5"
     inkscape:cy="149.5"
     inkscape:window-width="1538"
     inkscape:window-height="936"
     inkscape:window-x="0"
     inkscape:window-y="0"
     inkscape:window-maximized="1"
     inkscape:current-layer="svg1402" />
  <title
     id="title2">30800578_2207_w023_n003_2688b_p1_2688-ai</title>
  <defs
     id="defs205">
    <radialGradient
       id="g1"
       cx="400"
       cy="200"
       r="305"
       gradientUnits="userSpaceOnUse">
      <stop
         offset="0"
         stop-color="#0086c4"
         id="stop4" />
      <stop
         offset=".938"
         stop-color="#00095b"
         id="stop6" />
    </radialGradient>
    <linearGradient
       id="g2"
       x1="235.2"
       y1="210.3"
       x2="206"
       y2="335.7"
       gradientUnits="userSpaceOnUse">
      <stop
         offset="0"
         stop-color="#c4c7ff"
         id="stop9" />
      <stop
         offset="1"
         stop-color="#5b8be2"
         id="stop11" />
    </linearGradient>
    <linearGradient
       id="g3"
       x1="457.4"
       y1="177.6"
       x2="457.4"
       y2="250.3"
       gradientUnits="userSpaceOnUse">
      <stop
         offset="0"
         stop-color="#c4c7ff"
         id="stop14" />
      <stop
         offset="1"
         stop-color="#5b8be2"
         id="stop16" />
    </linearGradient>
    <linearGradient
       id="g4"
       x1="318.1"
       y1="301.5"
       x2="85.2"
       y2="301.5"
       gradientUnits="userSpaceOnUse">
      <stop
         offset="0"
         stop-color="#dbeffe"
         id="stop19" />
      <stop
         offset="1"
         stop-color="#000000"
         id="stop21" />
    </linearGradient>
    <linearGradient
       id="g5"
       x1="905.4"
       y1="368.3"
       x2="79.4"
       y2="368.3"
       gradientUnits="userSpaceOnUse">
      <stop
         offset="0"
         stop-color="#dbeffe"
         id="stop24" />
      <stop
         offset="1"
         stop-color="#000000"
         id="stop26" />
    </linearGradient>
    <linearGradient
       id="g6"
       x1="246.3"
       y1="285.3"
       x2="-2.8"
       y2="285.3"
       gradientUnits="userSpaceOnUse">
      <stop
         offset="0"
         stop-color="#dbeffe"
         id="stop29" />
      <stop
         offset="1"
         stop-color="#000000"
         id="stop31" />
    </linearGradient>
    <radialGradient
       id="g7"
       cx="400"
       cy="181.2"
       r="288.3"
       gradientUnits="userSpaceOnUse">
      <stop
         offset="0"
         stop-color="#ffffae"
         id="stop34" />
      <stop
         offset="1"
         stop-color="#000000"
         id="stop36" />
    </radialGradient>
    <radialGradient
       id="g8"
       cx="400"
       cy="181.2"
       r="380.9"
       gradientUnits="userSpaceOnUse">
      <stop
         offset="0"
         stop-color="#000000"
         id="stop39" />
      <stop
         offset=".337"
         stop-color="#ffffae"
         id="stop41" />
      <stop
         offset="1"
         stop-color="#000000"
         id="stop43" />
    </radialGradient>
    <linearGradient
       id="g9"
       x1="704.7"
       y1="84.4"
       x2="239.7"
       y2="311.4"
       gradientUnits="userSpaceOnUse">
      <stop
         offset=".005"
         stop-color="#fff6d6"
         id="stop46" />
      <stop
         offset="1"
         stop-color="#5b8be2"
         id="stop48" />
    </linearGradient>
    <linearGradient
       id="g10"
       x1="459.3"
       y1="84.7"
       x2="821.6"
       y2="252.5"
       gradientUnits="userSpaceOnUse">
      <stop
         offset=".005"
         stop-color="#fff6d6"
         id="stop51" />
      <stop
         offset="1"
         stop-color="#5b8be2"
         id="stop53" />
    </linearGradient>
    <linearGradient
       id="g11"
       x1="374.9"
       y1="161.7"
       x2="326.7"
       y2="348.5"
       gradientUnits="userSpaceOnUse">
      <stop
         offset=".005"
         stop-color="#fff6d6"
         id="stop56" />
      <stop
         offset="1"
         stop-color="#5b8be2"
         id="stop58" />
    </linearGradient>
    <linearGradient
       id="g12"
       x1="14.7"
       y1="182.5"
       x2="-1.5"
       y2="217.6"
       gradientUnits="userSpaceOnUse">
      <stop
         offset="0"
         stop-color="#c4c7ff"
         id="stop61" />
      <stop
         offset="1"
         stop-color="#5b8be2"
         id="stop63" />
    </linearGradient>
    <linearGradient
       id="g13"
       x1="-100.8"
       y1="249.5"
       x2="541.4"
       y2="128.6"
       gradientUnits="userSpaceOnUse">
      <stop
         offset="0"
         stop-color="#ffffff"
         id="stop66" />
      <stop
         offset="1"
         stop-color="#7c97f4"
         id="stop68" />
    </linearGradient>
    <linearGradient
       id="g14"
       x1="467.9"
       y1="129.2"
       x2="622.7"
       y2="129.2"
       gradientUnits="userSpaceOnUse">
      <stop
         offset="0"
         stop-color="#ffffff"
         id="stop71" />
      <stop
         offset="1"
         stop-color="#7c97f4"
         id="stop73" />
    </linearGradient>
    <linearGradient
       id="g15"
       x1="192.3"
       y1="191.6"
       x2="-138.7"
       y2="386.3"
       gradientUnits="userSpaceOnUse">
      <stop
         offset="0"
         stop-color="#7c97f4"
         id="stop76" />
      <stop
         offset="1"
         stop-color="#ffffff"
         id="stop78" />
    </linearGradient>
    <linearGradient
       id="g16"
       x1="534.9"
       y1="132.1"
       x2="951.8"
       y2="297.6"
       gradientUnits="userSpaceOnUse">
      <stop
         offset="0"
         stop-color="#7c97f4"
         id="stop81" />
      <stop
         offset="1"
         stop-color="#ffffff"
         id="stop83" />
    </linearGradient>
    <linearGradient
       id="g17"
       x1="-107.4"
       y1="196.6"
       x2="159.8"
       y2="149.2"
       gradientUnits="userSpaceOnUse">
      <stop
         offset="0"
         stop-color="#ffffff"
         id="stop86" />
      <stop
         offset="1"
         stop-color="#7c97f4"
         id="stop88" />
    </linearGradient>
    <linearGradient
       id="g18"
       x1="375.2"
       y1="187.8"
       x2="308.6"
       y2="446.2"
       gradientUnits="userSpaceOnUse">
      <stop
         offset="0"
         stop-color="#7c97f4"
         id="stop91" />
      <stop
         offset="1"
         stop-color="#ffffff"
         id="stop93" />
    </linearGradient>
    <linearGradient
       id="g19"
       x1="481.3"
       y1="218.1"
       x2="138.9"
       y2="412.5"
       gradientUnits="userSpaceOnUse">
      <stop
         offset="0"
         stop-color="#7c97f4"
         id="stop96" />
      <stop
         offset="1"
         stop-color="#ffffff"
         id="stop98" />
    </linearGradient>
    <linearGradient
       id="g20"
       x1="148.9"
       y1="153.3"
       x2="462.1"
       y2="112.1"
       gradientUnits="userSpaceOnUse">
      <stop
         offset="0"
         stop-color="#000000"
         id="stop101" />
      <stop
         offset="1"
         stop-color="#ffffae"
         id="stop103" />
    </linearGradient>
    <linearGradient
       id="g21"
       x1="393.2"
       y1="160.4"
       x2="687.4"
       y2="236.2"
       gradientUnits="userSpaceOnUse">
      <stop
         offset=".378"
         stop-color="#ffffae"
         id="stop106" />
      <stop
         offset="1"
         stop-color="#000000"
         id="stop108" />
    </linearGradient>
    <linearGradient
       id="g22"
       x1="364.1"
       y1="218.6"
       x2="709.2"
       y2="307.5"
       gradientUnits="userSpaceOnUse">
      <stop
         offset=".485"
         stop-color="#ffffae"
         id="stop111" />
      <stop
         offset="1"
         stop-color="#000000"
         id="stop113" />
    </linearGradient>
    <linearGradient
       id="g23"
       x1="453.9"
       y1="230.6"
       x2="226.9"
       y2="319.3"
       gradientUnits="userSpaceOnUse">
      <stop
         offset=".135"
         stop-color="#ffffae"
         id="stop116" />
      <stop
         offset=".979"
         stop-color="#000000"
         id="stop118" />
    </linearGradient>
    <linearGradient
       id="g24"
       x1="496.2"
       y1="223.9"
       x2="369.6"
       y2="380.4"
       gradientUnits="userSpaceOnUse">
      <stop
         offset="0"
         stop-color="#ffffae"
         id="stop121" />
      <stop
         offset="1"
         stop-color="#000000"
         id="stop123" />
    </linearGradient>
    <linearGradient
       id="g25"
       x1="-150.9"
       y1="274.7"
       x2="382.8"
       y2="274.7"
       gradientUnits="userSpaceOnUse">
      <stop
         offset="0"
         stop-color="#0092f7"
         id="stop126" />
      <stop
         offset="1"
         stop-color="#000000"
         id="stop128" />
    </linearGradient>
    <linearGradient
       id="g26"
       x1="436"
       y1="400"
       x2="436"
       y2="221.9"
       gradientUnits="userSpaceOnUse">
      <stop
         offset="0"
         stop-color="#1e1d41"
         id="stop131" />
      <stop
         offset=".517"
         stop-color="#3a2f54"
         id="stop133" />
      <stop
         offset="1"
         stop-color="#292b5a"
         id="stop135" />
    </linearGradient>
    <linearGradient
       id="g27"
       x1="455.1"
       y1="221.9"
       x2="618.6"
       y2="221.9"
       gradientUnits="userSpaceOnUse">
      <stop
         offset="0"
         stop-color="#1a1d37"
         id="stop138" />
      <stop
         offset="1"
         stop-color="#1b2136"
         id="stop140" />
    </linearGradient>
    <linearGradient
       id="g28"
       x1="399.3"
       y1="276"
       x2="399.3"
       y2="259.9"
       gradientUnits="userSpaceOnUse">
      <stop
         offset="0"
         stop-color="#1a1d37"
         id="stop143" />
      <stop
         offset="1"
         stop-color="#1b2136"
         id="stop145" />
    </linearGradient>
    <linearGradient
       id="g29"
       x1="540"
       y1="324.6"
       x2="540"
       y2="250.1"
       gradientUnits="userSpaceOnUse">
      <stop
         offset="0"
         stop-color="#1a1d37"
         id="stop148" />
      <stop
         offset="1"
         stop-color="#1b2136"
         id="stop150" />
    </linearGradient>
    <linearGradient
       id="g30"
       x1="90.7"
       y1="400"
       x2="90.7"
       y2="316"
       gradientUnits="userSpaceOnUse">
      <stop
         offset="0"
         stop-color="#0c0e25"
         id="stop153" />
      <stop
         offset="1"
         stop-color="#1a1d37"
         id="stop155" />
    </linearGradient>
    <linearGradient
       id="g31"
       x1="357.7"
       y1="356.6"
       x2="357.7"
       y2="352.3"
       gradientUnits="userSpaceOnUse">
      <stop
         offset="0"
         stop-color="#0c0e25"
         id="stop158" />
      <stop
         offset="1"
         stop-color="#1a1d37"
         id="stop160" />
    </linearGradient>
    <linearGradient
       id="g32"
       x1="221.4"
       y1="385.3"
       x2="221.4"
       y2="334.2"
       gradientUnits="userSpaceOnUse">
      <stop
         offset="0"
         stop-color="#ffffff"
         id="stop163" />
      <stop
         offset="1"
         stop-color="#6fb9b1"
         id="stop165" />
    </linearGradient>
    <linearGradient
       id="g33"
       x1="462.4"
       y1="243.9"
       x2="462.4"
       y2="347.5"
       gradientUnits="userSpaceOnUse">
      <stop
         offset=".023"
         stop-color="#000000"
         id="stop168" />
      <stop
         offset=".367"
         stop-color="#3b4e5a"
         id="stop170" />
      <stop
         offset=".935"
         stop-color="#ffffff"
         id="stop172" />
    </linearGradient>
    <linearGradient
       id="g34"
       x1="368.2"
       y1="451.8"
       x2="368.2"
       y2="86.6"
       gradientUnits="userSpaceOnUse">
      <stop
         offset=".005"
         stop-color="#002135"
         id="stop175" />
      <stop
         offset=".546"
         stop-color="#020f16"
         id="stop177" />
    </linearGradient>
    <radialGradient
       id="g35"
       cx="400"
       cy="181.2"
       r="94.6"
       gradientUnits="userSpaceOnUse">
      <stop
         offset="0"
         stop-color="#ffffae"
         id="stop180" />
      <stop
         offset="1"
         stop-color="#000000"
         id="stop182" />
    </radialGradient>
    <linearGradient
       id="g36"
       x1="-7.5"
       y1="238.1"
       x2="961.3"
       y2="238.1"
       gradientUnits="userSpaceOnUse">
      <stop
         offset="0"
         stop-color="#334459"
         id="stop185" />
      <stop
         offset="1"
         stop-color="#000000"
         id="stop187" />
    </linearGradient>
    <linearGradient
       id="g37"
       x1="-7.6"
       y1="252.2"
       x2="893.6"
       y2="252.2"
       gradientUnits="userSpaceOnUse">
      <stop
         offset="0"
         stop-color="#334459"
         id="stop190" />
      <stop
         offset="1"
         stop-color="#000000"
         id="stop192" />
    </linearGradient>
    <linearGradient
       id="g38"
       x1="828.1"
       y1="316.5"
       x2="-73.1"
       y2="316.5"
       gradientUnits="userSpaceOnUse">
      <stop
         offset="0"
         stop-color="#334459"
         id="stop195" />
      <stop
         offset="1"
         stop-color="#000000"
         id="stop197" />
    </linearGradient>
    <linearGradient
       id="g39"
       x1="-44.7"
       y1="342.6"
       x2="816.8"
       y2="342.6"
       gradientUnits="userSpaceOnUse">
      <stop
         offset="0"
         stop-color="#334459"
         id="stop200" />
      <stop
         offset="1"
         stop-color="#000000"
         id="stop202" />
    </linearGradient>
  </defs>
  <style
     id="style207">
		.s0 { fill: url(#g1) } 
		.s1 { fill: #fffcf0 } 
		.s2 { fill: url(#g2) } 
		.s3 { fill: url(#g3) } 
		.s4 { opacity: .1;mix-blend-mode: screen;fill: url(#g4) } 
		.s5 { opacity: .1;mix-blend-mode: screen;fill: url(#g5) } 
		.s6 { opacity: .1;mix-blend-mode: screen;fill: url(#g6) } 
		.s7 { fill: #d0cee6 } 
		.s8 { fill: #edffd3 } 
		.s9 { opacity: .9;mix-blend-mode: screen;fill: url(#g7) } 
		.s10 { opacity: .4;mix-blend-mode: screen;fill: url(#g8) } 
		.s11 { fill: url(#g9) } 
		.s12 { fill: url(#g10) } 
		.s13 { fill: url(#g11) } 
		.s14 { opacity: .6;fill: url(#g12) } 
		.s15 { opacity: .6;mix-blend-mode: multiply;fill: url(#g13) } 
		.s16 { mix-blend-mode: multiply;fill: url(#g14) } 
		.s17 { mix-blend-mode: multiply;fill: url(#g15) } 
		.s18 { opacity: .6;mix-blend-mode: multiply;fill: url(#g16) } 
		.s19 { mix-blend-mode: multiply;fill: url(#g17) } 
		.s20 { opacity: .6;mix-blend-mode: multiply;fill: url(#g18) } 
		.s21 { opacity: .6;mix-blend-mode: multiply;fill: url(#g19) } 
		.s22 { mix-blend-mode: screen;fill: url(#g20) } 
		.s23 { mix-blend-mode: screen;fill: url(#g21) } 
		.s24 { mix-blend-mode: screen;fill: url(#g22) } 
		.s25 { mix-blend-mode: screen;fill: url(#g23) } 
		.s26 { mix-blend-mode: screen;fill: url(#g24) } 
		.s27 { opacity: .3;mix-blend-mode: screen;fill: url(#g25) } 
		.s28 { fill: #1f1f3c } 
		.s29 { fill: url(#g26) } 
		.s30 { opacity: .7;mix-blend-mode: multiply;fill: #6c8097 } 
		.s31 { fill: #1d2036 } 
		.s32 { fill: url(#g27) } 
		.s33 { fill: #192931 } 
		.s34 { fill: #224048 } 
		.s35 { fill: #25494f } 
		.s36 { opacity: .5;fill: #3f5d63 } 
		.s37 { fill: #1d1f39 } 
		.s38 { fill: #392e53 } 
		.s39 { opacity: .3;mix-blend-mode: multiply;fill: #6c8097 } 
		.s40 { fill: #335760 } 
		.s41 { fill: url(#g28) } 
		.s42 { fill: #393857 } 
		.s43 { fill: #332c4f } 
		.s44 { opacity: .5;mix-blend-mode: multiply;fill: #6c8097 } 
		.s45 { fill: #3a2f54 } 
		.s46 { fill: url(#g29) } 
		.s47 { fill: #3b3975 } 
		.s48 { fill: url(#g30) } 
		.s49 { fill: #1d2238 } 
		.s50 { fill: #513c65 } 
		.s51 { fill: #40395d } 
		.s52 { fill: url(#g31) } 
		.s53 { fill: #191741 } 
		.s54 { fill: #514366 } 
		.s55 { fill: #3e335b } 
		.s56 { fill: #28244c } 
		.s57 { mix-blend-mode: multiply;fill: url(#g32) } 
		.s58 { fill: #181b36 } 
		.s59 { fill: #3d3356 } 
		.s60 { mix-blend-mode: multiply;fill: url(#g33) } 
		.s61 { fill: url(#g34) } 
		.s62 { fill: url(#g35) } 
		.s63 { opacity: .5;mix-blend-mode: screen;fill: url(#g36) } 
		.s64 { opacity: .5;mix-blend-mode: screen;fill: url(#g37) } 
		.s65 { opacity: .5;mix-blend-mode: screen;fill: url(#g38) } 
		.s66 { opacity: .5;mix-blend-mode: screen;fill: url(#g39) } 
	</style>
  <metadata
     id="metadata2221">
    <rdf:RDF>
      <cc:Work
         rdf:about="">
        <dc:title>30800578_2207_w023_n003_2688b_p1_2688-ai</dc:title>
      </cc:Work>
    </rdf:RDF>
  </metadata>
  <g
     id="g4987"
     transform="matrix(0.82452129,0,0,0.82452129,53.816375,41.242195)">
    <g
       id="g862">
      <g
         id="g850"
         style="opacity:0.4">
        <path
           id="path848"
           class="s2"
           d="m 308.7,262.1 c 25.3,5.1 77.6,1.4 108.5,-3.2 17.7,-2.2 30.9,-4.8 45.1,-10.1 -1.9,-0.2 -3.3,0.4 -4.5,0.7 -4.3,1.2 -8.5,1.3 -13,1.5 -9.1,0.8 -18,1.1 -26.9,1.1 -33.9,0.3 -62.4,-4.7 -91.3,-8.7 -24.2,-3 -56.3,-4.6 -83.2,2.4 -11.3,3.1 -16.2,8 -14.1,12.3 -9.2,-0.1 -18.6,0 -28.2,1.4 -10.1,1 -21.1,5.2 -13.1,8.2 -18.3,-1 -40.1,0.6 -56.6,6.4 -9.8,2.8 -9.1,8.2 -21.1,10.1 -22.9,2.4 -45.9,2.3 -69,4.6 -11.6,1.2 -24.2,3.9 -27.6,8.6 -5,5.8 -0.7,11.9 13.5,13.5 20.6,2.1 44.5,0.1 67.1,-0.8 57.1,-4.5 114.3,-10.8 171.1,-13.6 38.1,-2.5 75.7,-3.2 113.6,-5.3 17.4,-1.1 34,0.5 51.7,-2.1 -63.2,2.3 -60.6,-7 -109.2,-10.6 -13.5,-0.7 -63.5,-1.5 -61.6,7.5 -13,-1.3 -48.4,-2.4 -48,6.4 -14.4,-0.8 -29.1,1.2 -43.6,4 -18.9,2.7 -39.2,5.4 -57.3,4.2 -23.4,-2.1 -18.1,-7 3.8,-12 14.4,-3.1 30,-4.8 45.2,-6.5 14.9,-1.3 29.7,-1.7 44.5,-2.4 12.9,-1.2 25.9,-2.2 38.8,-3.2 21.7,-1.8 61,-3.6 65.4,-14.4 z"
           style="fill:url(#g2)" />
      </g>
      <g
         id="g854"
         style="opacity:0.4">
        <path
           id="path852"
           class="s3"
           d="m 558.1,194.3 c 9,-5.2 -2.2,-11.1 -11,-12.2 -15.1,-2.4 -31.9,-1.7 -46.2,2.1 -9.7,-5.3 -28.2,-1.7 -40,-1.3 -12.5,0.9 -24.9,1.1 -37.4,0.9 -21.1,-1.5 -41.8,-6.8 -63.4,-6.1 -44.7,4.6 -2,35.1 35.5,29.4 -10.9,-2.7 -19.4,-12 -0.7,-10.4 11.4,0.9 21,4.8 30.1,8.8 23.9,11.5 54.6,18.4 85.2,15.4 26.5,-1.6 55.1,-4.4 80.5,2.1 1.8,0.5 3.1,1.1 2.9,2.4 2.5,1.4 0.9,2.6 -0.5,3.8 -6.2,5.5 -17.1,7.7 -27.5,8.4 -35.2,2.9 -68.3,-5.1 -100.8,-12 -20.1,-3.8 -89,-14.6 -91.3,5.4 -10.2,-2.4 -29.9,-6 -34.4,2.6 -5,12.2 -43,6.4 -57.8,5.2 0.5,0.8 2.3,0.4 2.2,1.3 39.4,8.4 81.1,9.4 122.5,8.9 48,1.8 96.3,2.1 144,-1.3 21.4,-1.2 42.6,-4 62.7,-8.7 89.1,-19.8 -14.1,-40.3 -54.6,-44.7 z"
           style="fill:url(#g3)" />
      </g>
      <path
         id="path856"
         class="s4"
         d="m 290.6,261.7 c 0,0 -160.7,39.9 -132.1,7 28.6,-33 219.6,-75.4 110.9,-28.5 0,0 76,-19.4 38.2,-38 -37.9,-18.6 -228.7,61.4 -222.3,91.1 6.4,29.8 205.3,-31.6 205.3,-31.6 z"
         style="fill:url(#g4)" />
      <path
         id="path858"
         class="s5"
         d="m 79.4,368.3 c 0,0 140.9,-84.6 335,-106.4 194.2,-21.8 38,70.6 38,70.6 0,0 193.6,-33.6 263.6,-31.7 70.1,1.9 -59.6,53.2 -59.6,53.2 0,0 84.3,-31.2 125.7,-17.5 41.4,13.7 123.3,0 123.3,0 l -46.1,-18.6 c 0,0 -4.2,23.9 -25.2,18.6 -21,-5.3 -20.7,-24.6 -113.3,-5 0,0 169.2,-70.5 45.6,-64.2 -123.6,6.3 -279.3,52.2 -279.3,52.2 0,0 182.8,-88.9 108.5,-103.5 -74.3,-14.5 -338.7,51.6 -516.2,152.3 z"
         style="fill:url(#g5)" />
      <path
         id="path860"
         class="s6"
         d="m 246.3,194.3 c 0,0 -165.5,43.6 -224.4,84.5 C -37,319.6 6.7,157.2 183.4,162.9 c 176.7,5.7 -91.5,50.4 -91.5,50.4 0,0 94,-30.1 69.9,-39 -24.2,-8.9 -94.6,11 -139.1,71 -44.6,60.1 84.3,-27.3 223.6,-51 z"
         style="fill:url(#g6)" />
    </g>
    <g
       id="g1038">
      <path
         id="path1006"
         class="s11"
         d="m 146.8,247.3 c 5,-2.8 10.9,-4.3 16.9,-5.6 0.1,-0.4 0.1,-0.7 0.2,-1.1 11.6,-3.3 105.8,-21.1 96.7,-30.7 -13.5,-7.8 -50,-4 -67,-3.1 -45.8,4.1 -90.5,13.1 -133,26.1 -9,3.6 -82,23.2 -66.7,31.2 10.5,3.9 23.4,1.7 34.1,-0.8 -0.3,1.3 -1.8,1.5 -3,1.9 -13.6,5.3 -27.4,10.3 -42.5,12.7 -8.8,2 -25,0.3 -25.5,-8.9 0.2,-9.9 28,-23.7 37.2,-32.2 15.8,-9.9 10.6,-24.4 28.7,-31.6 33.6,-15 75,-10.7 110.5,-21.5 4,-1.3 8.7,-2.1 12.1,-4.3 11.6,-8.5 25.8,-15.1 40.1,-21 8.7,-3.3 18.5,-5.3 28.2,-3.5 6.9,1.5 10.9,7.2 7.6,12.4 -1.5,2.7 -4.6,4 -6.7,6.4 35.1,-10.3 94.5,-18.4 126.4,0.1 18.9,12 3.9,32.2 -15.3,38.4 -9.2,3.7 -19.4,5.3 -29.2,7.7 24,0.4 49.8,-7.4 69.8,-16.9 27.8,-13.7 48.9,-32.8 71.6,-50.5 16.1,-12.7 38.2,-20.1 61.3,-22.5 37.6,-4.1 64.8,6.7 33,33.1 12.4,-2.8 25.9,-5.6 38.5,-2.2 15.1,4.6 2.6,12.7 -7,15 32.4,0.5 95.8,16.9 30.4,31.3 -25.3,5.4 -57.7,11.1 -80.3,-1.9 9.9,0.5 21,3.8 29.1,-2.1 -21.4,-8.8 -47.1,-7.1 -70.3,-4.4 -27.6,3.1 -51.6,14 -73.1,26.6 -18.8,10.5 -42.7,14.4 -65.9,15 -62.1,3.3 -126.9,-9.2 -186.9,6.9 z"
         style="fill:url(#g9)" />
      <path
         id="path1008"
         class="s12"
         d="m 630.3,248.3 c -22.5,14.1 -70.4,16.9 -98.8,14 -16.4,-0.7 -28.5,-3.3 -41.9,-10.4 1.7,-0.8 3,0.1 4.2,0.4 4,1.4 7.8,0.7 11.9,0.4 8.3,-0.1 16.4,-1.4 24.5,-2.9 30.9,-5.7 56.2,-20.4 82.2,-33.3 21.7,-10 50.7,-19 75.8,-10.8 10.5,3.7 15.4,11.9 13.8,20.3 8.4,-1.8 16.9,-3.4 25.8,-2.6 9.3,0.1 19.6,5.9 12.6,12.9 16.6,-5.3 36.5,-6.4 52,1.4 9.2,3.5 9,13.7 20.1,15.1 21,0.2 41.9,-4.2 63,-4.3 10.7,0.1 22.4,2.7 25.9,11 5,9.8 1.6,21.9 -11.1,27.7 -18.5,7.7 -40.4,8.4 -61,10.8 -52.3,2.2 -104.8,1.1 -156.6,6.4 -34.8,2.4 -69.1,8.1 -103.7,11.2 -15.9,1 -30.9,7.1 -47.2,5.5 57.6,-7.3 54.5,-24.3 98.3,-39.9 12.2,-3.8 57.5,-14.7 56.6,2.6 11.7,-4.9 43.7,-13.4 44.2,3 13,-4.1 26.5,-3.1 39.9,-0.6 17.4,1.5 36.1,2.9 52.5,-2.8 21,-8.3 15.8,-16.4 -4.5,-21.6 -13.3,-3.1 -27.7,-3.4 -41.6,-3.8 -13.7,0.3 -27.2,2.3 -40.7,3.7 -11.8,0.3 -23.7,0.8 -35.5,1.3 -19.9,0.6 -55.7,4.5 -60.7,-14.7 z"
         style="fill:url(#g10)" />
      <path
         id="path1010"
         class="s13"
         d="m 226.4,265.9 c -9,-6.3 2.2,-13.4 11,-14.8 15.1,-2.9 31.9,-2 46.3,2.5 9.6,-6.3 28.1,-2 40,-1.5 12.4,1.1 24.8,1.3 37.3,1.1 21.2,-1.9 41.9,-8.2 63.4,-7.4 44.7,5.6 2,42.6 -35.5,35.6 10.9,-3.3 19.4,-14.5 0.7,-12.6 -11.3,1.1 -21,5.9 -30.1,10.7 -23.9,14 -54.6,22.3 -85.2,18.6 -26.5,-1.9 -55.1,-5.3 -80.5,2.6 -1.7,0.5 -3,1.3 -2.9,2.9 -2.4,1.7 -0.8,3.1 0.5,4.6 6.3,6.6 17.1,9.3 27.5,10.2 35.2,3.5 68.3,-6.3 100.9,-14.6 20,-4.6 88.9,-17.7 91.2,6.5 10.2,-2.8 29.9,-7.2 34.5,3.2 5,14.8 42.9,7.8 57.7,6.3 -0.4,0.9 -2.2,0.5 -2.2,1.5 -39.4,10.3 -81.1,11.5 -122.5,10.9 -47.9,2.2 -96.3,2.5 -144,-1.6 -21.3,-1.5 -42.6,-4.8 -62.6,-10.6 -89.2,-23.9 14,-48.8 54.5,-54.1 z"
         style="fill:url(#g11)" />
      <path
         id="path1012"
         class="s14"
         d="m 57.2,184.1 c -7.9,1.9 -15,5.4 -23.4,6.1 -6.8,0.7 -13.7,1.3 -20.2,2.8 -12.9,3 -22.5,10.8 -33.4,16.3 -5.5,3.1 -16,4.6 -18.9,-1.4 -33,8.9 -35.2,-7.2 -4.2,-13.1 -24.8,-13.8 15.7,-19.8 30.2,-16.4 26.4,3.7 41.7,10.4 69.8,5.4 q 0,0.1 0.1,0.3 z"
         style="fill:url(#g12)" />
      <path
         id="path1014"
         class="s15"
         d="m 60.6,232.9 c 42.5,-13 87.2,-22 133,-26.1 17,-0.9 53.5,-4.7 67,3.1 9.1,9.6 -85.1,27.4 -96.7,30.7 -0.1,0.4 -0.1,0.7 -0.2,1.1 -6,1.3 -11.9,2.8 -16.9,5.6 60,-16.1 124.8,-3.6 186.9,-6.9 23.2,-0.6 47.1,-4.5 65.9,-15 21.5,-12.6 45.5,-23.5 73.1,-26.6 23.2,-2.7 48.9,-4.4 70.3,4.4 -8.1,5.9 -19.2,2.6 -29.1,2.1 41.2,6.6 91,-9.2 1,-19.3 -90,-10 -120.9,36.2 -140.2,46.5 -19.4,10.3 -127.8,6.7 -134.1,4.4 -6.4,-2.3 7.4,-5.4 7.4,-5.4 0,0 -62.7,9 -57.4,5.4 5.3,-3.5 89,-15.4 92.6,-31 3.6,-15.5 -84,-0.3 -93.3,-4.4 -8.5,-3.8 14.7,-19.6 18.7,-22.3 -4.2,2.8 -32.5,20.4 -79,31 -50.6,11.5 -80.1,22.6 -112.1,35.5 -31.9,12.9 -25.4,16.9 -25.4,16.9 -5.1,-8.8 60,-26.3 68.5,-29.7 z"
         style="fill:url(#g13)" />
      <path
         id="path1016"
         class="s16"
         d="m 525.2,144 c 10.1,17.2 -22,27.8 -22,27.8 0,0 66.3,-11.2 66.3,-3.3 -0.1,7.9 -24.1,8.4 -24.1,8.4 20.6,0.6 59,6.4 68.6,13.5 9.5,7.1 -18.4,16.4 -19,16.6 64.1,-14.3 1,-30.6 -31.2,-31.1 9.6,-2.3 22.1,-10.4 7,-15 -12.6,-3.4 -26.1,-0.6 -38.5,2.2 31.8,-26.4 4.6,-37.2 -33,-33.1 -10.8,1.1 -21.5,3.4 -31.4,6.8 25.2,-7.9 49.5,-6.1 57.3,7.2 z"
         style="fill:url(#g14)" />
      <path
         id="path1018"
         class="s17"
         d="M -30.3,257.1 C -15.9,238.7 41.9,228.6 70,215.5 98,202.3 6.5,237.9 11.1,223.3 15.7,208.7 44.4,198.2 44.4,198.2 l 4.2,-1 c -8.9,1.8 -17.5,4.3 -25.7,8 -18.1,7.2 -12.9,21.7 -28.7,31.6 -9.2,8.5 -37,22.3 -37.2,32.2 0.5,9.2 16.7,10.9 25.5,8.9 15.1,-2.4 28.9,-7.4 42.5,-12.7 1.2,-0.4 2.7,-0.6 3,-1.9 -20.8,11.5 -72.8,12.3 -58.3,-6.2 z"
         style="fill:url(#g15)" />
      <path
         id="path1020"
         class="s18"
         d="m 672.7,304.4 c 51.8,-5.3 104.3,-4.2 156.6,-6.4 20.6,-2.4 42.5,-3.1 61,-10.8 12.7,-5.8 16.1,-17.9 11.1,-27.7 -2,-4.7 -6.6,-7.6 -12.2,-9.2 18.7,8.9 4.6,30.1 -14.3,30.6 -21.5,0.5 -44.4,-13.6 -49.8,-20.9 -5.2,-6.9 32.2,-10.5 35.6,-10.8 -16.1,1.2 -32.1,3.7 -48.2,3.6 -10.5,-1.3 -10.9,-10.6 -18.9,-14.6 29,18.2 -85.1,23.1 -68.2,9.7 16.7,-13.1 34.2,-15.5 34.9,-15.6 -6.8,0.6 -13.6,1.9 -19.9,4 5.6,-5.7 0.1,-10.5 -7.2,-12.2 26.6,13 -53.7,39.4 -72.6,37 -19,-2.4 -26.7,-25.5 2.5,-30.8 29.2,-5.3 33.1,3.6 33.1,3.6 11.8,-10.2 27.1,-10.7 28.6,-10.7 -7.8,-0.3 -15.3,1.2 -22.8,2.8 1.6,-8.4 -3.3,-16.6 -13.8,-20.3 -15.2,-5 -31.9,-3.6 -47.5,0.5 63.3,-9.8 57.5,20.6 57.5,20.6 -39.8,-12.4 -49.2,6.7 -107.4,26.1 -58.2,19.3 -101.2,-1 -101.2,-1 13.4,7.1 25.5,9.7 41.9,10.4 28.4,2.9 76.3,0.1 98.8,-14 5,19.2 40.8,15.3 60.7,14.7 11.8,-0.5 23.7,-1 35.5,-1.3 13.5,-1.4 27,-3.4 40.7,-3.7 13.9,0.4 28.3,0.7 41.6,3.8 16.5,4.2 23,10.4 13.6,17 -16.7,19.7 -100.6,18.1 -102.4,13.7 -1.7,-4.4 11.6,-7.8 12.5,-8.1 -3.9,0.5 -7.8,1.2 -11.6,2.4 -0.2,-6.2 -4.9,-8.8 -11.2,-9.4 29.6,7.8 -40.6,21 -37.7,13.7 2.8,-7.2 21.7,-12.4 21.8,-12.4 -6.7,1.3 -13.1,3.4 -17.1,5.1 0.6,-11.4 -19.1,-10.5 -36,-7.5 14.8,-2.2 49.5,1.1 22.4,15.3 -28.6,14.9 -101.4,24.8 -101.4,24.8 2.4,-0.3 4.8,-0.6 7.3,-0.8 34.6,-3.1 68.9,-8.8 103.7,-11.2 z"
         style="fill:url(#g16)" />
      <path
         id="path1022"
         class="s19"
         d="m -42.9,194.8 c -31,5.9 -28.8,22 4.2,13.1 2.9,6 13.4,4.5 18.9,1.4 10.9,-5.5 20.5,-13.3 33.4,-16.3 6.5,-1.5 13.4,-2.1 20.2,-2.8 5.7,-0.5 10.9,-2.3 16.1,-4 -8.8,2.5 -18.3,4 -27.5,3.3 -34,-2.4 -39.3,18.3 -47.1,18.9 -7.8,0.6 -2.6,-9 -2.6,-9 -15.3,13.6 -48,12.5 -21.7,0 26.2,-12.5 57.7,-12.8 57.7,-12.8 -20.6,-2.7 -52.8,8.5 -54,1.2 -0.8,-4.7 2.1,-7 4.2,-8.1 -9.8,2.7 -14.9,7.8 -1.8,15.1 z"
         style="fill:url(#g17)" />
      <path
         id="path1024"
         class="s20"
         d="m 383.2,325.8 c 18.2,-2.8 24.7,-11.4 24.7,-11.4 -30.3,15.9 -128.7,14.2 -125.8,7 2.9,-7.2 38.7,-17.8 38.7,-17.9 q -0.5,0.2 -1,0.3 -6.8,1.7 -13.6,3.5 c -32.2,8.6 -26.5,9.8 -50.4,17.4 -9.5,3.1 -27,3.7 -45.6,3.4 8,1.1 16.2,2 24.3,2.5 47.7,4.1 96.1,3.8 144,1.6 q 4.7,0.1 9.4,0.1 1.2,0 2.4,0 3.9,0 7.7,0 1,0 1.9,0 10,-0.1 19.8,-0.4 0.5,0 0.9,0 4.8,-0.2 9.7,-0.4 0.1,-0.1 0.2,-0.1 10.3,-0.5 20.5,-1.5 0.1,0 0.2,0 5.1,-0.5 10.1,-1.1 c -41.1,3.4 -78.1,-3 -78.1,-3 z"
         style="fill:url(#g18)" />
      <path
         id="path1026"
         class="s21"
         d="m 400.3,280 c 0,0 27.7,-5.5 22.4,-17.2 -5.2,-11.7 -37.1,-2.7 -67.1,15.9 -29.9,18.6 -140.5,-23.6 -65.8,-19.4 0,0 -73.3,-7.7 -26.3,10.4 0,0 -55.3,-3.8 -33.1,-16.4 q -1.2,0.5 -2.3,1.1 -1,0.7 -1.9,1.4 -0.5,0.4 -0.8,0.7 -0.5,0.4 -0.8,0.8 0,0 0,0.1 -0.3,0.3 -0.5,0.6 -0.1,0.1 -0.1,0.1 -0.2,0.4 -0.4,0.8 -0.1,0 -0.1,0.1 -0.1,0.3 -0.2,0.7 0,0 -0.1,0.1 -0.1,0.4 -0.1,0.8 0,0 0,0.1 0,0.3 0,0.7 0,0.1 0.1,0.2 0,0.4 0.2,0.8 0,0 0,0.1 0.1,0.3 0.3,0.6 0.1,0.1 0.1,0.2 0.3,0.4 0.6,0.8 0.1,0.1 0.1,0.1 0.3,0.4 0.7,0.7 0.1,0.1 0.2,0.2 0.5,0.4 1,0.8 c 0,0 10.2,7.6 51.6,8.3 0,0 13.4,5.7 19.3,11 1.6,1.4 2.7,2.8 2.8,4.1 0.4,2.4 -2.7,4.4 -12,5.1 -32.1,2.3 -87.9,-22.4 -114,-2.6 -24.8,18.7 36.3,25.7 42.8,26.4 q -0.9,-0.1 -1.8,-0.2 -0.4,-0.1 -0.7,-0.1 -0.6,-0.1 -1.2,-0.2 -0.4,-0.1 -0.8,-0.1 -0.6,-0.1 -1.1,-0.2 -0.4,-0.1 -0.8,-0.2 -0.6,-0.1 -1.1,-0.2 -0.4,-0.1 -0.8,-0.2 -0.5,-0.1 -1,-0.2 -0.4,-0.1 -0.8,-0.2 -0.6,-0.2 -1,-0.3 -0.5,-0.1 -0.9,-0.2 -0.4,-0.2 -0.9,-0.3 -0.4,-0.2 -0.8,-0.3 -0.5,-0.2 -1,-0.3 -0.3,-0.2 -0.7,-0.3 -0.5,-0.2 -0.9,-0.4 -0.4,-0.2 -0.8,-0.3 -0.4,-0.2 -0.9,-0.5 -0.3,-0.1 -0.7,-0.3 -0.4,-0.2 -0.8,-0.5 -0.4,-0.2 -0.7,-0.3 -0.4,-0.3 -0.8,-0.6 -0.3,-0.2 -0.6,-0.4 -0.5,-0.3 -0.9,-0.6 -0.2,-0.2 -0.5,-0.4 -0.4,-0.3 -0.9,-0.7 -0.2,-0.1 -0.4,-0.3 -0.6,-0.6 -1.2,-1.2 c -1.3,-1.5 -2.9,-2.9 -0.5,-4.6 -0.1,-1.6 1.2,-2.4 2.9,-2.9 25.4,-7.9 54,-4.5 80.5,-2.6 19.1,2.3 38.2,-0.1 55.7,-5.6 10.5,-3.3 20.5,-7.8 29.5,-13 9.1,-4.8 18.8,-9.6 30.1,-10.7 18.7,-1.9 10.2,9.3 -0.7,12.6 q 1.1,0.2 2.2,0.3 0.3,0.1 0.6,0.1 0.8,0.1 1.6,0.2 0.3,0 0.6,0 1.1,0.1 2.2,0.2 0.1,0 0.2,0 1,0 1.9,0 0.3,0 0.6,0 0.9,0 1.8,0 0.2,0 0.4,0 1.1,0 2.2,-0.1 0.1,0 0.3,-0.1 0.9,0 1.9,-0.1 0.2,-0.1 0.5,-0.1 0.9,-0.1 1.9,-0.3 0.1,0 0.2,0 1.1,-0.2 2.2,-0.4 0.1,0 0.2,0 1,-0.2 2,-0.4 0.1,-0.1 0.3,-0.1 2.2,-0.5 4.2,-1.2 1.1,-0.3 2.1,-0.7 0.1,0 0.2,0 3.1,-1.1 6,-2.4 c -0.2,0 -16.2,5 -24.9,3.7 z"
         style="fill:url(#g19)" />
      <path
         id="path1028"
         class="s22"
         d="m 213.4,160 c 9.2,7.8 -2.4,15.6 -2.4,15.6 63.1,-15.6 133,-8.8 128.2,14.1 -4.8,22.9 -59.8,34.2 -59.8,34.2 73.3,26.3 139.5,-44.1 159.8,-66.1 16.1,-17.4 36.7,-23.6 44.5,-25.4 -17.3,3.7 -33.3,10.3 -45.7,20.1 -22.7,17.7 -43.8,36.8 -71.6,50.5 -20,9.5 -45.8,17.3 -69.8,16.9 9.8,-2.4 20,-4 29.2,-7.7 19.2,-6.2 34.2,-26.4 15.3,-38.4 -31.9,-18.5 -91.3,-10.4 -126.4,-0.1 2.1,-2.4 5.2,-3.7 6.7,-6.4 3.3,-5.2 -0.7,-10.9 -7.6,-12.4 -9.7,-1.8 -19.5,0.2 -28.2,3.5 -8.7,3.6 -17.2,7.4 -25.2,11.7 19.2,-8.7 45.3,-16.6 53,-10.1 z"
         style="fill:url(#g20)" />
      <path
         id="path1030"
         class="s23"
         d="m 576.2,241 c 32.1,-23.7 62.8,-34.4 63,-34.4 -9.6,2.6 -18.7,6.2 -26.8,9.9 -26,12.9 -51.3,27.6 -82.2,33.3 -8.1,1.5 -16.2,2.8 -24.5,2.9 -4.1,0.3 -7.9,1 -11.9,-0.4 -1.2,-0.3 -2.5,-1.2 -4.2,-0.4 0,0 54.4,12.9 86.6,-10.9 z"
         style="fill:url(#g21)" />
      <path
         id="path1032"
         class="s24"
         d="m 639.3,276.6 c -8.1,1.5 -15.3,3.4 -19.2,4.6 -43.8,15.6 -40.7,32.6 -98.3,39.9 0,0 7.6,0.2 18.4,-0.8 8,-1.3 15.9,-3.3 24,-4.2 11.5,-3 23.3,-7.9 32.2,-15.5 21.5,-18.4 38,-23 42.9,-24 z"
         style="fill:url(#g22)" />
      <path
         id="path1034"
         class="s25"
         d="m 285.4,256.3 c 0,0 5.3,-6.1 24.4,-1.5 19,4.6 48.7,10 79.7,0 31.1,-10 50.2,-5.9 53.1,2.4 2.7,8 -14.5,17.6 -15.7,18.3 18.9,-9.6 26.3,-26.1 -2.5,-29.7 -21.5,-0.8 -42.2,5.5 -63.4,7.4 -12.5,0.2 -24.9,0 -37.3,-1.1 -11.9,-0.5 -30.4,-4.8 -40,1.5 -14.4,-4.5 -31.2,-5.4 -46.3,-2.5 -2.3,0.4 -4.8,1.1 -7,2.2 0,0 24,-7 55,3 z"
         style="fill:url(#g23)" />
      <path
         id="path1036"
         class="s26"
         d="m 445.5,313.5 c -4.6,-10.4 -24.3,-6 -34.5,-3.2 -2.3,-24.2 -71.2,-11.1 -91.2,-6.5 0,0 68.4,-14 88.1,10.6 0,0 19.7,-7.2 28.8,-0.6 9,6.5 -3.2,19.4 66.5,6 -14.8,1.5 -52.7,8.5 -57.7,-6.3 z"
         style="fill:url(#g24)" />
    </g>
  </g>
</svg>
